<svg xmlns="http://www.w3.org/2000/svg" viewBox="0 0 1440 320"><path fill="#DFD3C3" fill-opacity="1" d="M0,192L18.5,202.7C36.9,213,74,235,111,229.3C147.7,224,185,192,222,176C258.5,160,295,160,332,144C369.2,128,406,96,443,101.3C480,107,517,149,554,154.7C590.8,160,628,128,665,122.7C701.5,117,738,139,775,160C812.3,181,849,203,886,202.7C923.1,203,960,181,997,181.3C1033.8,181,1071,203,1108,197.3C1144.6,192,1182,160,1218,138.7C1255.4,117,1292,107,1329,101.3C1366.2,96,1403,96,1422,96L1440,96L1440,0L1421.5,0C1403.1,0,1366,0,1329,0C1292.3,0,1255,0,1218,0C1181.5,0,1145,0,1108,0C1070.8,0,1034,0,997,0C960,0,923,0,886,0C849.2,0,812,0,775,0C738.5,0,702,0,665,0C627.7,0,591,0,554,0C516.9,0,480,0,443,0C406.2,0,369,0,332,0C295.4,0,258,0,222,0C184.6,0,148,0,111,0C73.8,0,37,0,18,0L0,0Z"></path></svg>