<svg xmlns="http://www.w3.org/2000/svg" viewBox="0 0 1440 320"><path fill="#800040" fill-opacity="1" d="M0,192L26.7,213.3C53.3,235,107,277,160,293.3C213.3,309,267,299,320,277.3C373.3,256,427,224,480,229.3C533.3,235,587,277,640,261.3C693.3,245,747,171,800,122.7C853.3,75,907,53,960,64C1013.3,75,1067,117,1120,133.3C1173.3,149,1227,139,1280,154.7C1333.3,171,1387,213,1413,234.7L1440,256L1440,0L1413.3,0C1386.7,0,1333,0,1280,0C1226.7,0,1173,0,1120,0C1066.7,0,1013,0,960,0C906.7,0,853,0,800,0C746.7,0,693,0,640,0C586.7,0,533,0,480,0C426.7,0,373,0,320,0C266.7,0,213,0,160,0C106.7,0,53,0,27,0L0,0Z"></path></svg>