<svg xmlns="http://www.w3.org/2000/svg" viewBox="0 0 1440 320"><path fill="#F0ECE3" fill-opacity="1" d="M0,96L16,101.3C32,107,64,117,96,101.3C128,85,160,43,192,58.7C224,75,256,149,288,165.3C320,181,352,139,384,117.3C416,96,448,96,480,80C512,64,544,32,576,37.3C608,43,640,85,672,122.7C704,160,736,192,768,202.7C800,213,832,203,864,197.3C896,192,928,192,960,165.3C992,139,1024,85,1056,58.7C1088,32,1120,32,1152,58.7C1184,85,1216,139,1248,176C1280,213,1312,235,1344,234.7C1376,235,1408,213,1424,202.7L1440,192L1440,320L1424,320C1408,320,1376,320,1344,320C1312,320,1280,320,1248,320C1216,320,1184,320,1152,320C1120,320,1088,320,1056,320C1024,320,992,320,960,320C928,320,896,320,864,320C832,320,800,320,768,320C736,320,704,320,672,320C640,320,608,320,576,320C544,320,512,320,480,320C448,320,416,320,384,320C352,320,320,320,288,320C256,320,224,320,192,320C160,320,128,320,96,320C64,320,32,320,16,320L0,320Z"></path></svg>